<svg width="22" height="22" viewBox="0 0 22 22" fill="none" xmlns="http://www.w3.org/2000/svg">
<g clip-path="url(#clip0_1_5)">
<path d="M16.5267 21.3373L14.6967 21.3333C11.8893 21.326 6.938 21.3127 4.75933 21.3367H4.75867C2.28267 21.3367 -0.287333 19.904 -0.294667 17.248C-0.302667 14.5453 -0.361333 12.3053 -0.423999 9.934C-0.451333 8.89267 -0.479333 7.81467 -0.505999 6.64333C-0.595999 2.532 0.934001 0.353334 4.04067 0.169334C5.82267 0.0633338 8.79933 -0.00533295 11.624 -0.00533295C13.9947 -0.00533295 18.1253 0.0426674 19.1473 0.363334C20.6293 0.828667 21.4953 2.02333 21.7233 3.91533C21.932 5.648 21.8167 11.8347 21.754 15.158C21.7367 16.096 21.7233 16.7967 21.7233 17.086C21.7233 19.6293 19.6347 21.3373 16.5267 21.3373ZM8.732 19.99C10.8127 19.99 13.1033 19.996 14.7 20L16.5267 20.004C18.874 20.004 20.39 18.8593 20.39 17.0873C20.39 16.7953 20.4033 16.0853 20.4207 15.134C20.4787 12.0773 20.598 5.71667 20.3993 4.076C20.1847 2.28667 19.354 1.82667 18.7473 1.63667C18.2953 1.49467 16.1587 1.32933 11.6233 1.32933C8.822 1.32933 5.87667 1.39667 4.11867 1.50133C1.76733 1.64067 0.752 3.218 0.826667 6.61533C0.852 7.784 0.880667 8.86067 0.908 9.9C0.970667 12.2793 1.03 14.5267 1.038 17.2453C1.04333 19.27 3.22933 20.0047 4.69733 20.0047C5.688 19.994 7.14867 19.99 8.732 19.99Z" fill="black"/>
<path d="M13.106 16.444C12.902 16.444 12.7013 16.3507 12.57 16.1747C12.1133 15.5607 11.6433 14.9593 11.1733 14.358L10.8393 13.93C10.3153 13.2587 9.84867 12.596 9.39733 11.9553C9.00133 11.3927 8.604 10.8287 8.16333 10.2507C7.74867 9.70733 7.36467 9.42 7.02133 9.396C6.39133 9.34533 5.60067 10.1387 4.76 10.972C4.6 11.1307 4.43733 11.2913 4.27133 11.452L3.61133 12.0927C3.16667 12.526 2.732 12.9493 2.26667 13.384L1.88533 13.736C1.56 14.034 1.25267 14.3153 0.96 14.6253C0.707333 14.894 0.284666 14.9053 0.0173324 14.6533C-0.250668 14.4007 -0.262667 13.9787 -0.0106668 13.7107C0.316 13.3647 0.655999 13.0533 0.984666 12.7527L1.35667 12.41C1.81467 11.9813 2.24333 11.5647 2.68133 11.1373L3.346 10.4927C3.508 10.3367 3.666 10.1793 3.822 10.0253C4.88267 8.974 5.884 7.982 7.114 8.06666C7.86733 8.11866 8.55733 8.56866 9.22333 9.44266C9.67467 10.0347 10.082 10.612 10.4873 11.1887C10.9493 11.8453 11.386 12.4653 11.89 13.1113L12.2233 13.538C12.7007 14.1487 13.178 14.758 13.64 15.3813C13.8593 15.6767 13.798 16.0947 13.502 16.314C13.3833 16.4013 13.244 16.444 13.106 16.444Z" fill="black"/>
<path d="M20.7913 15.576C20.6327 15.576 20.4733 15.52 20.3467 15.406C19.7353 14.858 18.486 13.802 17.4827 12.9527L16.4967 12.1167C15.3907 11.1713 14.3727 11.906 12.6473 13.7993L12.2847 14.194C12.034 14.4633 11.6113 14.478 11.3427 14.2267C11.0733 13.9753 11.0587 13.5533 11.3093 13.284L11.6613 12.9007C12.9393 11.4987 15.0767 9.15267 17.3627 11.1013L18.3447 11.934C19.3547 12.7887 20.6113 13.852 21.2367 14.4127C21.5113 14.6587 21.534 15.0793 21.2887 15.354C21.156 15.5007 20.9747 15.576 20.7913 15.576Z" fill="black"/>
<path d="M12.892 8.528C11.7493 8.528 10.7293 7.69467 10.412 6.50133C10.1133 5.38067 10.5433 4.29933 11.5073 3.74733C12.4467 3.20933 13.7913 3.19733 14.6547 3.74467C15.5927 4.33867 16.0307 5.54667 15.6973 6.61667C15.3573 7.704 14.234 8.49 12.964 8.528C12.958 8.52733 12.8987 8.528 12.892 8.528ZM13.128 4.66133C12.788 4.66133 12.4393 4.75 12.1693 4.904C11.54 5.26467 11.6307 5.90133 11.7 6.158C11.8327 6.65733 12.2627 7.19467 12.8913 7.19467H12.9247C13.5233 7.17667 14.2313 6.836 14.4233 6.21933C14.5807 5.71533 14.378 5.148 13.94 4.87133C13.728 4.736 13.4393 4.66133 13.128 4.66133Z" fill="black"/>
</g>
<defs>
<clipPath id="clip0_1_5">
<rect width="22" height="21.3333" fill="white"/>
</clipPath>
</defs>
</svg>
