<svg width="20" height="23" viewBox="0 0 20 23" fill="none" xmlns="http://www.w3.org/2000/svg">
<g clip-path="url(#clip0_1_10)">
<path d="M9.892 18.7393C8.99666 18.7393 8.11733 18.566 7.35 18.2393C4.61266 17.0727 3.56466 13.654 4.304 11.1933C4.50933 10.5093 4.94133 9.57 5.53733 8.99C6.50866 8.046 7.85 7.46666 9.316 7.358C9.52267 7.34266 9.73533 7.33466 9.95333 7.33466C12.502 7.33466 14.5353 8.33733 15.3927 10.0173C16.3987 11.988 15.9493 15.0667 14.3913 16.8807C13.9453 17.4007 13.3673 17.8487 12.806 18.11C11.9187 18.522 10.9107 18.7393 9.892 18.7393ZM9.95267 8.668C9.76933 8.668 9.58933 8.67466 9.41466 8.68733C8.26066 8.77333 7.21333 9.22 6.46667 9.946C6.08 10.322 5.74333 11.0367 5.58133 11.5767C5.02066 13.4433 5.882 16.1647 7.87333 17.0127C9.172 17.566 10.9153 17.5173 12.244 16.9007C12.6327 16.72 13.0573 16.3873 13.3793 16.012C14.5747 14.6207 14.96 12.1027 14.2047 10.6233C13.4687 9.18133 11.5253 8.668 9.95267 8.668Z" fill="black"/>
<path d="M10.0373 15.4587C9.92334 15.4587 9.80734 15.45 9.69134 15.432C8.98934 15.322 8.334 14.8513 7.93867 14.1727C7.54467 13.4973 7.46134 12.732 7.71 12.0727C8.014 11.266 8.70334 10.692 9.55334 10.5373C10.4533 10.3747 11.4393 10.7273 12.0367 11.4013C12.464 11.8833 12.6573 12.4927 12.5813 13.1173C12.426 14.408 11.284 15.4587 10.0373 15.4587ZM9.99667 11.8313C9.92734 11.8313 9.85867 11.8373 9.792 11.8493C9.396 11.9207 9.1 12.1673 8.95867 12.542C8.854 12.82 8.90334 13.1787 9.092 13.5007C9.28734 13.836 9.58867 14.0653 9.898 14.1133C10.518 14.2167 11.1787 13.618 11.2587 12.9567C11.2887 12.7093 11.2153 12.4833 11.04 12.2853C10.7947 12.01 10.3853 11.8313 9.99667 11.8313Z" fill="black"/>
<path d="M15.7493 22.472C14.444 22.472 12.244 22.4413 10.0487 22.4107C7.87133 22.3807 5.69867 22.35 4.41667 22.35L4.11267 22.3507C4.112 22.3507 4.04667 22.3507 4.04533 22.3507C2.98267 22.3507 1.648 22.2253 0.756 21.25C-0.303334 20.0907 -0.299334 18.5213 -0.296667 17.2607V17.172C-0.295334 16.178 -0.298 15.242 -0.302 14.3207C-0.307333 12.8607 -0.312667 11.434 -0.297333 9.86L-0.295335 9.38533C-0.288668 7.03933 -0.279334 3.494 3.16867 3.02733C3.79333 2.94333 7.02667 2.934 8.388 2.934C11.4487 2.934 14.9827 2.976 15.8147 3.056C16.858 3.15533 18.0427 3.35467 18.9107 4.08C20.2047 5.162 20.336 6.74267 20.2847 8.28867C20.2807 8.41933 20.2853 9.16 20.2913 10.1673C20.302 12.0667 20.318 14.9347 20.294 16.502L20.2907 16.7607C20.2733 18.1433 20.2487 20.0373 19.4167 21.2253C18.8147 22.0827 17.642 22.4253 16.7447 22.4607C16.5373 22.4687 16.1933 22.472 15.7493 22.472ZM4.41667 21.0167C5.70333 21.0167 7.88267 21.0473 10.0673 21.0773C12.964 21.1187 15.886 21.1607 16.6927 21.128C17.2687 21.1053 18.0247 20.8867 18.3247 20.4593C18.9213 19.6087 18.9427 17.8847 18.9567 16.7433L18.96 16.4807C18.984 14.928 18.968 12.0673 18.9573 10.1747C18.9513 9.13933 18.9473 8.38 18.952 8.244C18.998 6.846 18.8627 5.77733 18.0547 5.102C17.466 4.61 16.528 4.462 15.6873 4.38133C15.0007 4.31533 11.8627 4.266 8.388 4.266C5.11267 4.266 3.626 4.30933 3.34733 4.34733C1.22 4.63533 1.04533 6.708 1.038 9.388L1.036 9.872C1.02133 11.44 1.026 12.8607 1.03133 14.3147C1.03467 15.2393 1.038 16.1773 1.03667 17.174V17.2633C1.034 18.3993 1.03133 19.574 1.74067 20.35C2.278 20.938 3.20733 21.0173 4.04533 21.0173L4.41667 21.0167Z" fill="black"/>
<path d="M14.7227 4.216C14.496 4.216 14.2753 4.10066 14.1507 3.892C14.0253 3.684 13.9093 3.46266 13.792 3.23933C13.3393 2.376 13.02 1.84 12.3973 1.68933C11.6707 1.51333 8.37734 1.424 7.478 1.72333C6.98467 1.88666 6.688 2.39 6.34534 2.972C6.18 3.252 6.00934 3.54133 5.80467 3.80466C5.57801 4.09466 5.15867 4.14733 4.86934 3.92133C4.57867 3.69533 4.52667 3.276 4.75267 2.986C4.90467 2.79133 5.04667 2.55 5.19734 2.29533C5.59534 1.62 6.09067 0.779998 7.058 0.457998C8.31334 0.0406643 11.8767 0.191331 12.7133 0.393997C13.9667 0.698664 14.5253 1.76466 14.974 2.62066C15.0793 2.82133 15.1833 3.02066 15.2947 3.20733C15.484 3.52333 15.3813 3.93266 15.0653 4.12133C14.958 4.18533 14.8393 4.216 14.7227 4.216Z" fill="black"/>
<path d="M14.6753 7.042C14.3067 7.042 14.0087 6.744 14.0087 6.37533C14.0087 6.00667 14.3067 5.70867 14.6753 5.70867C14.8147 5.70867 14.9367 5.70667 15.0513 5.704C15.25 5.70067 15.4327 5.69867 15.6547 5.704C16.0227 5.716 16.312 6.02333 16.3013 6.39067C16.29 6.75933 15.994 7.04133 15.6147 7.03733C15.416 7.03067 15.2533 7.03333 15.0753 7.03733C14.9527 7.03933 14.8233 7.042 14.6753 7.042Z" fill="black"/>
</g>
<defs>
<clipPath id="clip0_1_10">
<rect width="20" height="22.6667" fill="white"/>
</clipPath>
</defs>
</svg>
