<svg width="24" height="23" viewBox="0 0 24 23" fill="none" xmlns="http://www.w3.org/2000/svg">
<g clip-path="url(#clip0_1_2)">
<path d="M12.4167 22.818C12.146 22.818 11.8913 22.652 11.7913 22.3833C11.6633 22.038 11.8387 21.654 12.184 21.526C16.4427 19.9433 22.408 11.872 22.3287 6.43667C22.2933 4.03867 21.1133 2.42867 18.8193 1.652C17.4553 1.18933 16.0133 1.392 14.7593 2.22266C13.3727 3.14133 12.4707 4.69466 12.3467 6.376C12.3193 6.74266 12.0067 7.01733 11.6327 6.99133C11.2653 6.964 10.99 6.64467 11.0173 6.27733C11.1713 4.18733 12.2953 2.25533 14.0233 1.11067C15.6047 0.0619988 17.5093 -0.201335 19.2473 0.387998C22.092 1.352 23.6187 3.43667 23.662 6.416C23.752 12.584 17.432 20.9973 12.6487 22.7753C12.572 22.804 12.4933 22.818 12.4167 22.818Z" fill="black"/>
<path d="M12.416 22.8173C12.3227 22.8173 12.2287 22.798 12.1387 22.7567C5.70934 19.81 0.528009 13.0313 0.342676 7.324C0.243343 4.26133 1.56534 1.9 4.16734 0.496666C7.53068 -1.31867 10.7787 0.899332 12.5047 3.90333C12.688 4.22267 12.578 4.63 12.2587 4.81333C11.94 4.996 11.532 4.886 11.3487 4.56733C10.3007 2.74467 7.74401 0.0819988 4.80001 1.66933C2.11334 3.11933 1.61801 5.52067 1.67468 7.28C1.84534 12.5247 6.68534 18.79 12.694 21.544C13.0287 21.6973 13.176 22.0933 13.0227 22.428C12.91 22.6733 12.6687 22.8173 12.416 22.8173Z" fill="black"/>
</g>
<defs>
<clipPath id="clip0_1_2">
<rect width="24" height="22.6667" fill="white"/>
</clipPath>
</defs>
</svg>
